<?xml version="1.0" standalone="no"?>
<!DOCTYPE svg PUBLIC "-//W3C//DTD SVG 20010904//EN"
 "http://www.w3.org/TR/2001/REC-SVG-20010904/DTD/svg10.dtd">
<svg version="1.0" xmlns="http://www.w3.org/2000/svg"
 width="700.000000pt" height="700.000000pt" viewBox="0 0 700.000000 700.000000"
 preserveAspectRatio="xMidYMid meet">
<metadata>
Created by potrace 1.11, written by Peter Selinger 2001-2013
</metadata>
<g transform="translate(0.000000,700.000000) scale(0.100000,-0.100000)"
fill="#000000" stroke="none">
<path d="M3275 6984 c-251 -38 -477 -123 -689 -262 -39 -25 -73 -49 -76 -52
-3 -3 -18 -16 -34 -28 -240 -184 -452 -484 -550 -777 -38 -112 -74 -283 -82
-390 -4 -49 -7 -377 -7 -727 l0 -638 -296 0 -296 0 0 -2053 0 -2052 2263 -3
2262 -2 0 2055 0 2055 -297 2 -298 3 -1 680 c-1 374 -4 697 -7 719 -4 21 -9
57 -12 80 -4 22 -10 57 -15 76 -5 19 -11 46 -13 60 -21 116 -96 297 -193 460
-244 411 -660 697 -1144 786 -113 21 -397 25 -515 8z m425 -408 c14 -3 39 -9
55 -12 425 -76 813 -422 950 -847 56 -177 58 -204 60 -934 l1 -673 -1258 0
c-1191 0 -1258 1 -1259 18 0 9 0 303 0 654 0 581 2 682 17 758 2 14 6 35 9 48
28 148 125 365 221 492 78 103 204 224 306 293 47 31 91 57 97 57 6 0 11 5 11
10 0 6 3 9 8 8 4 0 39 14 77 32 90 42 208 78 315 95 84 13 337 14 390 1z"/>
</g>
</svg>
