<?xml version="1.0" standalone="no"?>
<!DOCTYPE svg PUBLIC "-//W3C//DTD SVG 20010904//EN"
 "http://www.w3.org/TR/2001/REC-SVG-20010904/DTD/svg10.dtd">
<svg version="1.0" xmlns="http://www.w3.org/2000/svg"
 width="700.000000pt" height="700.000000pt" viewBox="0 0 700.000000 700.000000"
 preserveAspectRatio="xMidYMid meet">
<metadata>
Created by potrace 1.11, written by Peter Selinger 2001-2013
</metadata>
<g transform="translate(0.000000,700.000000) scale(0.100000,-0.100000)"
fill="#000000" stroke="none">
<path d="M3072 4430 c-232 -61 -375 -200 -437 -426 -23 -84 -30 -280 -15 -402
l12 -102 120 0 c120 0 120 0 114 22 -3 13 -11 75 -17 138 -28 266 39 441 195
514 54 25 138 46 186 46 l30 0 0 63 c0 34 -3 86 -6 115 l-7 52 -51 -1 c-28 0
-84 -9 -124 -19z"/>
<path d="M3707 4389 c-4 -13 -7 -65 -7 -115 l0 -91 63 -23 c159 -57 247 -155
277 -308 13 -62 9 -263 -6 -324 l-6 -28 120 0 120 0 9 68 c4 37 7 117 6 177
-3 241 -92 424 -266 545 -71 51 -195 105 -264 116 -36 5 -41 4 -46 -17z"/>
<path d="M3437 3044 c-55 -17 -113 -71 -142 -129 -23 -48 -32 -169 -16 -218
17 -50 66 -115 105 -137 l32 -20 -52 -252 c-28 -139 -50 -254 -49 -256 1 -1
101 -1 222 0 l220 3 -63 258 -63 258 38 35 c75 67 106 178 77 276 -42 147
-175 225 -309 182z"/>
</g>
</svg>
